<svg width="40" height="40" viewBox="0 0 40 40" fill="none" xmlns="http://www.w3.org/2000/svg">
<path d="M29.4692 23.7123C29.0548 24.1139 28.8644 24.6947 28.9588 25.2643L30.3812 33.1363C30.5012 33.8035 30.2196 34.4787 29.6612 34.8643C29.114 35.2643 28.386 35.3123 27.7892 34.9923L20.7028 31.2963C20.4564 31.1651 20.1828 31.0947 19.9028 31.0867H19.4692C19.3188 31.1091 19.1716 31.1571 19.0372 31.2307L11.9492 34.9443C11.5988 35.1203 11.202 35.1827 10.8132 35.1203C9.86603 34.9411 9.23403 34.0387 9.38923 33.0867L10.8132 25.2147C10.9076 24.6403 10.7172 24.0563 10.3028 23.6483L4.52522 18.0483C4.04202 17.5795 3.87402 16.8755 4.09482 16.2403C4.30922 15.6067 4.85642 15.1443 5.51722 15.0403L13.4692 13.8867C14.074 13.8243 14.6052 13.4563 14.8772 12.9123L18.3812 5.72829C18.4644 5.56829 18.5716 5.42109 18.7012 5.29629L18.8452 5.18429C18.9204 5.10109 19.0068 5.03229 19.1028 4.97629L19.2772 4.91229L19.5492 4.80029H20.2228C20.8244 4.86269 21.354 5.22269 21.6308 5.76029L25.1812 12.9123C25.4372 13.4355 25.9348 13.7987 26.5092 13.8867L34.4612 15.0403C35.1332 15.1363 35.6948 15.6003 35.9172 16.2403C36.1268 16.8819 35.946 17.5859 35.4532 18.0483L29.4692 23.7123Z" fill="#A54D2D"/>
</svg>
